<svg width="24" height="24" viewBox="0 0 24 24" fill="none" xmlns="http://www.w3.org/2000/svg">
<path d="M17 7.63333V5.66667C17 5.05383 16.8793 4.447 16.6448 3.88081C16.4102 3.31462 16.0665 2.80018 15.6332 2.36684C15.1998 1.9335 14.6854 1.58975 14.1192 1.35523C13.553 1.12071 12.9462 1 12.3333 1C11.7205 1 11.1137 1.12071 10.5475 1.35523C9.98129 1.58975 9.46684 1.9335 9.0335 2.36684C8.60016 2.80018 8.25642 3.31462 8.0219 3.88081C7.78737 4.447 7.66667 5.05383 7.66667 5.66667V10.3333C7.66667 10.5101 7.7369 10.6797 7.86193 10.8047C7.98695 10.9298 8.15652 11 8.33333 11C8.51014 11 8.67971 10.9298 8.80474 10.8047C8.92976 10.6797 9 10.5101 9 10.3333V8.96667H14.3333V7.63333H9V5.66667C9 4.78261 9.35119 3.93477 9.97631 3.30964C10.6014 2.68452 11.4493 2.33333 12.3333 2.33333C13.2174 2.33333 14.0652 2.68452 14.6904 3.30964C15.3155 3.93477 15.6667 4.78261 15.6667 5.66667V10.3C15.6667 10.4768 15.7369 10.6464 15.8619 10.7714C15.987 10.8964 16.1565 10.9667 16.3333 10.9667C16.5101 10.9667 16.6797 10.8964 16.8047 10.7714C16.9298 10.6464 17 10.4768 17 10.3V8.96667H20.3333V20.9667H4.33333V8.96667H6.33333V7.63333H3V21.0267C3 21.3644 3.13415 21.6883 3.37295 21.9271C3.61175 22.1658 3.93562 22.3 4.27333 22.3H20.3933C20.731 22.3 21.0549 22.1658 21.2937 21.9271C21.5325 21.6883 21.6667 21.3644 21.6667 21.0267V7.63333H17Z" fill="#090E1A"/>
</svg>
