<svg width="30" height="30" viewBox="0 0 30 30" fill="none" xmlns="http://www.w3.org/2000/svg">
<path fill-rule="evenodd" clip-rule="evenodd" d="M10.3619 3.81781C11.5616 3.76258 11.9441 3.75031 15 3.75031C18.0559 3.75031 18.4384 3.7636 19.637 3.81781C20.8357 3.87201 21.6538 4.06326 22.3697 4.34042C23.1194 4.62371 23.7995 5.06656 24.362 5.63928C24.9347 6.20076 25.3766 6.87985 25.6588 7.63053C25.937 8.34644 26.1272 9.16462 26.1825 10.3612C26.2377 11.5629 26.25 11.9454 26.25 15.0003C26.25 18.0562 26.2367 18.4387 26.1825 19.6384C26.1283 20.835 25.937 21.6531 25.6588 22.3691C25.3766 23.1198 24.934 23.8001 24.362 24.3623C23.7995 24.9351 23.1194 25.3769 22.3697 25.6592C21.6538 25.9374 20.8357 26.1276 19.6391 26.1828C18.4384 26.238 18.0559 26.2503 15 26.2503C11.9441 26.2503 11.5616 26.237 10.3619 26.1828C9.16531 26.1286 8.34713 25.9374 7.63122 25.6592C6.88046 25.3769 6.20024 24.9343 5.63792 24.3623C5.06559 23.8005 4.62268 23.1206 4.34008 22.3701C4.06292 21.6542 3.8727 20.836 3.81747 19.6394C3.76224 18.4377 3.74997 18.0552 3.74997 15.0003C3.74997 11.9444 3.76326 11.5619 3.81747 10.3633C3.87167 9.16462 4.06292 8.34644 4.34008 7.63053C4.6231 6.87993 5.06634 6.20006 5.63895 5.63826C6.20047 5.06604 6.88 4.62315 7.6302 4.34042C8.34611 4.06326 9.16429 3.87303 10.3609 3.81781H10.3619ZM19.546 5.84281C18.3596 5.7886 18.0037 5.77735 15 5.77735C11.9962 5.77735 11.6403 5.7886 10.4539 5.84281C9.35656 5.89292 8.76133 6.07599 8.36451 6.23042C7.83986 6.43496 7.46452 6.67735 7.07077 7.0711C6.69752 7.43422 6.41027 7.87628 6.23008 8.36485C6.07565 8.76167 5.89258 9.3569 5.84247 10.4543C5.78826 11.6406 5.77702 11.9966 5.77702 15.0003C5.77702 18.0041 5.78826 18.36 5.84247 19.5463C5.89258 20.6437 6.07565 21.2389 6.23008 21.6358C6.41008 22.1236 6.69747 22.5664 7.07077 22.9295C7.43383 23.3028 7.87667 23.5902 8.36451 23.7702C8.76133 23.9246 9.35656 24.1077 10.4539 24.1578C11.6403 24.212 11.9952 24.2233 15 24.2233C18.0047 24.2233 18.3596 24.212 19.546 24.1578C20.6434 24.1077 21.2386 23.9246 21.6354 23.7702C22.1601 23.5656 22.5354 23.3233 22.9292 22.9295C23.3025 22.5664 23.5899 22.1236 23.7699 21.6358C23.9243 21.2389 24.1074 20.6437 24.1575 19.5463C24.2117 18.36 24.2229 18.0041 24.2229 15.0003C24.2229 11.9966 24.2117 11.6406 24.1575 10.4543C24.1074 9.3569 23.9243 8.76167 23.7699 8.36485C23.5653 7.84019 23.3229 7.46485 22.9292 7.0711C22.566 6.69788 22.124 6.41063 21.6354 6.23042C21.2386 6.07599 20.6434 5.89292 19.546 5.84281V5.84281ZM13.563 18.4684C14.3655 18.8024 15.2591 18.8475 16.0911 18.5959C16.9232 18.3443 17.6421 17.8117 18.125 17.089C18.608 16.3662 18.825 15.4982 18.7391 14.6333C18.6532 13.7683 18.2696 12.9599 17.6539 12.3463C17.2615 11.9541 16.7869 11.6537 16.2644 11.4669C15.7419 11.2801 15.1845 11.2115 14.6323 11.2659C14.0801 11.3204 13.5468 11.4966 13.0709 11.7819C12.595 12.0672 12.1882 12.4545 11.8799 12.9158C11.5716 13.3772 11.3695 13.9012 11.288 14.45C11.2065 14.9989 11.2477 15.559 11.4087 16.09C11.5697 16.6211 11.8464 17.1098 12.2189 17.521C12.5914 17.9323 13.0505 18.2558 13.563 18.4684ZM10.9111 10.9114C11.4481 10.3745 12.0855 9.94855 12.7871 9.65795C13.4887 9.36735 14.2406 9.21778 15 9.21778C15.7593 9.21778 16.5113 9.36735 17.2128 9.65795C17.9144 9.94855 18.5519 10.3745 19.0888 10.9114C19.6258 11.4484 20.0517 12.0859 20.3423 12.7874C20.6329 13.489 20.7825 14.2409 20.7825 15.0003C20.7825 15.7597 20.6329 16.5116 20.3423 17.2132C20.0517 17.9148 19.6258 18.5522 19.0888 19.0892C18.0044 20.1736 16.5336 20.7828 15 20.7828C13.4663 20.7828 11.9955 20.1736 10.9111 19.0892C9.82667 18.0047 9.21744 16.5339 9.21744 15.0003C9.21744 13.4667 9.82667 11.9959 10.9111 10.9114V10.9114ZM22.065 10.0789C22.198 9.95342 22.3046 9.80248 22.3782 9.63505C22.4519 9.46762 22.4913 9.28711 22.4939 9.10421C22.4966 8.92131 22.4625 8.73973 22.3938 8.57022C22.325 8.40072 22.2229 8.24674 22.0936 8.11739C21.9642 7.98804 21.8102 7.88597 21.6407 7.8172C21.4712 7.74843 21.2896 7.71437 21.1067 7.71704C20.9238 7.7197 20.7433 7.75904 20.5759 7.83272C20.4085 7.9064 20.2575 8.01293 20.132 8.14599C19.8879 8.40477 19.7543 8.7485 19.7594 9.10421C19.7646 9.45992 19.9082 9.79961 20.1598 10.0512C20.4113 10.3027 20.751 10.4463 21.1067 10.4515C21.4625 10.4567 21.8062 10.3231 22.065 10.0789V10.0789Z" fill="white"/>
</svg>
