<svg width="30" height="30" viewBox="0 0 30 30" fill="none" xmlns="http://www.w3.org/2000/svg">
<path d="M10.5734 26.2496C21.0232 26.2496 26.7396 17.5911 26.7396 10.0955C26.7396 9.8532 26.7396 9.60744 26.7293 9.36515C27.8422 8.55949 28.8027 7.56205 29.5658 6.41954C28.5262 6.87791 27.4246 7.18001 26.2966 7.31603C27.4847 6.60582 28.3746 5.48838 28.8009 4.17139C27.6846 4.83272 26.4628 5.29697 25.1889 5.54381C24.3326 4.63179 23.1994 4.0276 21.9648 3.82483C20.7303 3.62207 19.4634 3.83204 18.3603 4.42223C17.2572 5.01242 16.3795 5.94988 15.8631 7.08941C15.3467 8.22895 15.2206 9.50695 15.5041 10.7255C13.2451 10.6122 11.0352 10.0253 9.01758 9.00299C7 7.98064 5.21985 6.54561 3.79259 4.79097C3.06803 6.04239 2.8469 7.52267 3.17413 8.93121C3.50135 10.3397 4.35239 11.5709 5.55442 12.3748C4.65367 12.3442 3.77272 12.1023 2.98263 11.6687V11.7466C2.98419 13.0575 3.43833 14.3277 4.26831 15.3425C5.09828 16.3573 6.25318 17.0543 7.53777 17.3159C7.05018 17.4502 6.54649 17.5172 6.04074 17.5149C5.68419 17.516 5.32836 17.483 4.9781 17.4163C5.34118 18.5448 6.04813 19.5314 6.99996 20.2381C7.95179 20.9447 9.10081 21.336 10.2861 21.357C8.27254 22.9385 5.78529 23.7962 3.22493 23.7921C2.77378 23.794 2.32294 23.768 1.875 23.7142C4.47364 25.3709 7.49156 26.2506 10.5734 26.2496V26.2496Z" fill="white"/>
</svg>
